<svg id="Capa_1" enable-background="new 0 0 512.094 512.094" height="512" viewBox="0 0 512.094 512.094" width="512" xmlns="http://www.w3.org/2000/svg"><g><path d="m251.547 290.667h9c4.143 0 7.5-3.358 7.5-7.5s-3.357-7.5-7.5-7.5h-9c-4.143 0-7.5 3.358-7.5 7.5s3.357 7.5 7.5 7.5zm9 105h-9c-4.143 0-7.5 3.358-7.5 7.5s3.357 7.5 7.5 7.5h9c4.143 0 7.5-3.358 7.5-7.5s-3.357-7.5-7.5-7.5zm194.092-178.918-19.737-12.957c-15.032-9.869-20.706-28.987-13.489-45.458l40.203-91.77c2.086-4.763 1.954-10.165-.363-14.819-2.269-4.559-6.371-7.878-11.291-9.147l-131.628-42.147c-2.688-.8-6.191-.61-8.531 1.16-9.056 6.848-28.187 18.328-54.615 18.328h-.068c-26.399-.02-45.508-11.491-54.549-18.328-1.532-1.124-4.152-2.07-6.811-1.16l-131.63 42.146c-4.919 1.271-9.021 4.592-11.29 9.152-2.315 4.654-2.447 10.052-.363 14.813l40.2 91.77c7.215 16.47 1.542 35.589-13.484 45.46l-19.745 12.953c-7.765 5.104-12.4 13.697-12.4 22.988v224.86c0 26.191 21.309 47.5 47.5 47.5h123.5c16.782 0 31.548-8.756 40-21.932 8.452 13.176 23.218 21.932 40 21.932h123.5c26.191 0 47.5-21.309 47.5-47.5v-224.856c-.001-9.293-4.64-17.888-12.409-22.988zm-394.592 22.985c0-4.225 2.108-8.132 5.634-10.449l19.743-12.952c21.165-13.902 29.152-40.826 18.993-64.018l-40.2-91.769c-.85-2.109.438-3.059 2.257-3.589l121.481-38.897c-.433 14.925.748 29.768 3.53 44.263.779 4.067 4.712 6.729 8.778 5.952 4.068-.781 6.733-4.711 5.952-8.779-2.418-12.6-3.527-25.489-3.322-38.465 12.141 6.889 29.951 13.893 52.214 13.909h.08c23.363 0 41.829-7.696 53.995-14.897.344 16.322-1.396 32.489-5.206 48.208-9.601 39.611-30.39 68.579-47.919 87.124-17.739-18.764-31.768-40.791-40.758-64.134-1.487-3.864-5.829-5.791-9.694-4.303-3.866 1.489-5.792 5.83-4.304 9.695 10.258 26.632 26.562 51.663 47.246 72.577v76.958h-20c-7.994 0-14.498 6.503-14.5 14.497h-154zm223 21.433v44h-26.942c-.02 0-.039-.003-.058-.003s-.039.003-.058.003h-26.942v-44zm-223 14.497h154v15h-154zm0 30h154v.003c0 7.995 6.505 14.5 14.5 14.5h20v46h-20c-7.994 0-14.498 6.503-14.5 14.497h-154zm0 90h154v15h-154zm188.5 68.93c0 17.92-14.579 32.5-32.5 32.5h-123.5c-17.921 0-32.5-14.58-32.5-32.5v-38.93h154v.003c0 7.995 6.505 14.5 14.5 14.5h20zm7.558-39.427c-.02 0-.039-.003-.058-.003s-.039.003-.058.003h-26.942v-44h54v44zm195.942 39.427c0 17.92-14.579 32.5-32.5 32.5h-123.5c-17.921 0-32.5-14.58-32.5-32.5v-24.427h20c7.995 0 14.5-6.505 14.5-14.5v-.003h154zm0-53.93h-154v-15h154zm0-120h-57c-4.143 0-7.5 3.358-7.5 7.5s3.357 7.5 7.5 7.5h57v75h-154c-.002-7.994-6.506-14.497-14.5-14.497h-20v-46h20c7.995 0 14.5-6.505 14.5-14.5v-.003h58.636c4.143 0 7.5-3.358 7.5-7.5s-3.357-7.5-7.5-7.5h-58.636v-15h154zm0-30h-154c-.002-7.994-6.506-14.497-14.5-14.497h-20v-76.963c19.494-19.716 44.015-52.068 55.008-97.42 4.245-17.517 6.116-35.542 5.586-53.723l121.479 38.897c1.798.508 3.092 1.499 2.255 3.588l-40.203 91.769c-10.161 23.196-2.172 50.118 18.997 64.016l19.737 12.957c3.532 2.319 5.641 6.225 5.641 10.45z"/></g></svg>