<?xml version="1.0" encoding="iso-8859-1"?>
<!-- Generator: Adobe Illustrator 19.0.0, SVG Export Plug-In . SVG Version: 6.00 Build 0)  -->
<svg version="1.1" id="Capa_1" xmlns="http://www.w3.org/2000/svg" xmlns:xlink="http://www.w3.org/1999/xlink" x="0px" y="0px"
	 viewBox="0 0 512 512" style="enable-background:new 0 0 512 512;" xml:space="preserve">
<g>
	<g>
		<path d="M477,0.002c-19.299,0-35,15.701-35,34.999C442,54.299,457.701,70,477,70s35-15.701,35-34.999
			C512,15.703,496.299,0.002,477,0.002z M477,50c-8.271,0-15-6.728-15-15s6.729-15,15-15s15,6.728,15,15S485.271,50,477,50z"/>
	</g>
</g>
<g>
	<g>
		<path d="M382,40c-16.542,0-30,13.458-30,29.999c0,16.541,13.458,30,30,30S412,86.541,412,70S398.542,40,382,40z M382,80
			c-5.514,0-10-4.486-10-10s4.486-10,10-10c5.514,0,10,4.486,10,10S387.514,80,382,80z"/>
	</g>
</g>
<g>
	<g>
		<path d="M423.8,8.052c-0.12-0.64-0.32-1.269-0.57-1.87c-0.25-0.61-0.56-1.189-0.92-1.729c-0.36-0.551-0.78-1.061-1.24-1.52
			c-0.46-0.459-0.97-0.88-1.52-1.24c-0.54-0.359-1.12-0.67-1.73-0.92c-0.6-0.25-1.23-0.45-1.87-0.58c-1.29-0.26-2.61-0.25-3.9,0
			c-0.64,0.13-1.27,0.33-1.87,0.58c-0.61,0.25-1.19,0.561-1.73,0.92c-0.55,0.36-1.06,0.78-1.52,1.24c-0.46,0.46-0.88,0.97-1.24,1.52
			c-0.36,0.54-0.67,1.119-0.92,1.729c-0.25,0.601-0.45,1.23-0.57,1.87c-0.13,0.64-0.2,1.3-0.2,1.95c0,0.649,0.07,1.31,0.2,1.95
			c0.12,0.639,0.32,1.269,0.57,1.869c0.25,0.61,0.56,1.19,0.92,1.73c0.36,0.55,0.78,1.06,1.24,1.519
			c0.46,0.461,0.97,0.881,1.52,1.24c0.54,0.36,1.12,0.67,1.73,0.92c0.6,0.25,1.23,0.45,1.87,0.57c0.64,0.13,1.3,0.2,1.95,0.2
			s1.31-0.07,1.95-0.2c0.64-0.12,1.27-0.32,1.87-0.57c0.61-0.25,1.19-0.56,1.73-0.92c0.55-0.359,1.06-0.779,1.52-1.24
			c0.46-0.46,0.88-0.97,1.24-1.519c0.36-0.54,0.67-1.12,0.92-1.73c0.25-0.6,0.45-1.229,0.57-1.869c0.13-0.641,0.2-1.301,0.2-1.95
			C424,9.352,423.93,8.691,423.8,8.052z"/>
	</g>
</g>
<g>
	<g>
		<path d="M351.8,24.051c-0.12-0.64-0.32-1.269-0.57-1.87c-0.25-0.61-0.56-1.189-0.92-1.729c-0.36-0.551-0.78-1.061-1.24-1.52
			c-0.46-0.46-0.97-0.88-1.52-1.24c-0.54-0.37-1.12-0.67-1.72-0.92c-0.61-0.25-1.24-0.45-1.88-0.58c-1.28-0.25-2.61-0.25-3.9,0
			c-0.64,0.13-1.27,0.33-1.87,0.58c-0.61,0.25-1.19,0.561-1.73,0.92c-0.55,0.36-1.06,0.78-1.52,1.24c-0.46,0.46-0.88,0.97-1.24,1.52
			c-0.36,0.54-0.67,1.119-0.92,1.729c-0.25,0.601-0.45,1.23-0.57,1.87c-0.13,0.64-0.2,1.3-0.2,1.95c0,0.649,0.07,1.31,0.2,1.95
			s0.32,1.27,0.57,1.869c0.25,0.61,0.56,1.19,0.92,1.73c0.36,0.55,0.78,1.06,1.24,1.519c0.46,0.461,0.97,0.881,1.52,1.24
			c0.54,0.36,1.12,0.67,1.73,0.92c0.6,0.25,1.23,0.45,1.87,0.57c0.64,0.13,1.3,0.2,1.95,0.2s1.31-0.07,1.95-0.2
			c0.64-0.12,1.27-0.32,1.87-0.57c0.61-0.25,1.19-0.56,1.73-0.92c0.55-0.359,1.06-0.779,1.52-1.24c0.46-0.46,0.88-0.97,1.24-1.519
			c0.36-0.54,0.67-1.12,0.92-1.73c0.25-0.6,0.45-1.229,0.57-1.869c0.13-0.641,0.2-1.301,0.2-1.95
			C352,25.351,351.93,24.69,351.8,24.051z"/>
	</g>
</g>
<g>
	<g>
		<path d="M375.904,253.253c-4.129-2.813-10.045-2.968-13.674,2.41c-7.366,10.914-19.116,17.293-32.4,17.33h-0.09
			c-26.25,0-52.299-10.579-71.479-29.019c-3.898-3.748-10.412-3.574-14.141,0.29c-3.81,3.98-3.68,10.32,0.29,14.14
			c22.672,21.818,53.931,34.589,85.42,34.589h0.11c19.541,0,37.951-9.903,48.899-26.168
			C382.384,261.558,380.041,256.072,375.904,253.253z"/>
	</g>
</g>
<g>
	<g>
		<path d="M180.659,241.31c-2.516-0.006-5.043,0.868-6.929,2.663c-19.17,18.44-45.22,29.02-71.48,29.02h-0.08
			c-13.056,0-25.389-6.012-32.78-16.829c-2.992-4.379-9.526-5.618-13.9-2.63c-4.509,3.079-5.694,9.384-2.63,13.899
			c11.131,16.4,29.525,25.56,49.23,25.56h0.08c31.521,0,62.711-12.804,85.419-34.588C193.85,252.398,189.266,241.329,180.659,241.31
			z"/>
	</g>
</g>
<g>
	<g>
		<path d="M343.936,183.548c-34.008-13.061-80.639-20.552-127.937-20.552c-48.711,0-94.172,6.993-128.009,19.691
			c-5.17,1.94-7.789,7.705-5.849,12.876s7.706,7.788,12.876,5.848c31.645-11.876,74.61-18.415,120.981-18.415
			c44.94,0,88.958,7.007,120.765,19.222c1.158,0.443,2.375,0.641,3.586,0.619c3.954-0.073,7.849-2.493,9.337-6.369
			C351.666,191.313,349.092,185.528,343.936,183.548z"/>
	</g>
</g>
<g>
	<g>
		<path d="M483.736,92.988c0,0-39.277-6.926-39.392-6.946c-5.181-0.914-10.649,2.754-11.587,8.127l-15.754,90.165
			c-12.393-14.952-32.239-27.953-58.725-38.125c-38.972-14.968-89.5-23.211-142.278-23.211c-53.39,0-103.841,7.898-142.063,22.241
			C40.137,157.923,0,182.478,0,223.257c0,27.525,8.785,53.614,24.737,73.463c18.798,23.39,46.298,36.271,77.435,36.271
			c21.344,0,42.582-4.394,62.294-12.586l21.007,10.503c9.633,4.816,20.222,7.226,30.812,7.226c10.391,0,20.783-2.32,30.275-6.965
			l21.526-10.534c19.556,8.044,40.596,12.355,61.741,12.355c24.959,0,47.661-8.585,65.477-24.472l-13.513,77.34
			c-6.835,38.763-40.672,66.116-78.747,66.114c-4.594,0-9.253-0.398-13.93-1.223c-7.729-1.363-15.188-3.861-22.135-7.366
			c0,0,6.662-37.781,6.681-37.884c0.928-5.26-2.879-10.663-8.112-11.584c0,0-88.339-15.577-88.632-15.628
			c-5.325-0.939-10.652,2.818-11.585,8.111l-6.946,39.391c-0.959,5.438,2.673,10.625,8.112,11.584l14.116,2.489
			c20.591,37.172,56.07,62.566,98.084,69.973c8.213,1.448,16.439,2.164,24.608,2.164c28.462-0.001,56.202-8.689,80.003-25.355
			c30.632-21.448,51.079-53.541,57.575-90.383l24.159-138.269H480c5.523,0,10-4.477,10-10v-39.999c0-5.522-4.477-10-10-10h-4.476
			l16.326-93.439C492.8,99.123,489.169,93.946,483.736,92.988z M237.77,313.206c-13.602,6.657-29.807,6.587-43.352-0.186
			l-7.726-3.863c10.216-6.175,19.787-13.461,28.458-21.767c0.42-0.17,1.279-0.17,1.699,0c8.765,8.396,18.449,15.747,28.79,21.964
			L237.77,313.206z M391.732,283.229c-15.127,19.193-37.112,29.763-61.905,29.763c-36.508,0-72.69-14.64-99.27-40.165
			c-7.667-7.363-21.476-7.336-29.116,0c-26.579,25.526-62.761,40.166-99.27,40.166c-24.956,0-46.919-10.228-61.845-28.801
			C27.219,267.881,20,246.242,20,223.258c0-31.42,35.835-49.867,60.964-59.296c36.03-13.519,83.986-20.965,135.036-20.965
			c50.386,0,98.369,7.771,135.107,21.881C390.375,179.959,412,200.692,412,223.257C412,245.027,404.613,266.886,391.732,283.229z
			 M179.817,419.416l3.473-19.696l68.937,12.155l-3.473,19.695L179.817,419.416z M421.183,392.806
			c-5.566,31.565-23.091,59.073-49.348,77.457c-26.256,18.384-58.1,25.442-89.667,19.878c-30.243-5.333-56.543-21.541-74.648-45.475
			l33.715,5.944c12.888,10.135,28.183,16.975,44.406,19.835c54.302,9.581,106.271-26.813,115.848-81.129l20.768-118.862
			c1.733-4.049,3.24-8.216,4.527-12.461h17.953L421.183,392.806z M470,237.994h-38.94c0.618-4.889,0.94-9.816,0.94-14.737
			c0-1.769-0.111-3.521-0.278-5.263H470V237.994z M455.221,197.995h-20.303l15.816-90.52l19.696,3.474L455.221,197.995z"/>
	</g>
</g>
<g>
	<g>
		<circle cx="50" cy="224" r="10"/>
	</g>
</g>
<g>
	<g>
		<circle cx="382" cy="223" r="10"/>
	</g>
</g>
<g>
</g>
<g>
</g>
<g>
</g>
<g>
</g>
<g>
</g>
<g>
</g>
<g>
</g>
<g>
</g>
<g>
</g>
<g>
</g>
<g>
</g>
<g>
</g>
<g>
</g>
<g>
</g>
<g>
</g>
</svg>
